<svg xmlns="http://www.w3.org/2000/svg" width="40" height="40" viewBox="0 0 40 40" fill="none">
              <path d="M27.9645 7.63994C28.3023 6.93407 28.4585 6.0648 28.5464 5.31629C28.6391 4.52685 28.6751 3.68018 28.6907 2.92302C28.6974 2.60067 28.7004 2.27578 28.7022 1.9726C29.7743 2.48849 30.7932 3.09692 31.7488 3.78752C31.7432 3.84085 31.7372 3.89542 31.7308 3.95121C31.572 5.32026 31.1204 7.44213 29.9124 10.2644C29.478 11.2794 28.6325 12.0891 27.4145 12.7294C26.1866 13.3749 24.6751 13.7948 23.108 14.0537C20.4274 14.4966 17.8948 14.4296 16.7648 14.3996C16.5663 14.3944 16.4111 14.3903 16.3059 14.3903C16.1876 14.3903 16.0191 14.3845 15.8065 14.3772C14.2208 14.3228 10.1832 14.1844 6.20793 15.732C4.10944 16.549 1.77998 18.0649 0 19.3449C0.0472042 17.8801 0.252141 16.4552 0.598404 15.0863C0.725134 15.032 0.896831 14.9592 1.10721 14.872C1.59885 14.6681 2.29958 14.386 3.12979 14.0762C4.8022 13.452 6.95005 12.7339 8.95577 12.3036C12.5688 11.5284 14.0264 11.5124 17.8684 11.4703C18.3389 11.4651 18.8453 11.4596 19.3957 11.4522C21.9664 11.4177 23.8208 11.1476 25.1914 10.5058C26.6999 9.79958 27.4411 8.73354 27.9645 7.63994Z" fill="url(#paint0_linear_34_5619)"/>
              <path d="M2.27374 10.7156C5.62339 4.34517 12.3126 0 20.0181 0C21.8311 0 23.5877 0.240523 25.2579 0.691356C25.2564 0.767378 25.2553 0.844491 25.2545 0.921499C25.2523 1.1294 25.2515 1.34494 25.2507 1.5705V1.57081C25.2493 1.96332 25.2478 2.38622 25.2382 2.85215C25.2235 3.56758 25.1904 4.28694 25.1167 4.91461C25.0382 5.58322 24.9306 5.98214 24.8487 6.15316C24.5328 6.81336 24.2685 7.12946 23.7254 7.38373C23.0445 7.70254 21.8015 7.97134 19.3493 8.00424C18.8068 8.01152 18.3035 8.01693 17.8315 8.022C13.9518 8.06367 12.1905 8.08259 8.23036 8.93227C6.13576 9.38167 3.96827 10.0945 2.27374 10.7156Z" fill="url(#paint1_linear_34_5619)"/>
              <path d="M39.521 24.5724C37.4501 33.4147 29.5043 40 20.0181 40C15.1078 40 10.6102 38.2355 7.12649 35.3068C8.07057 34.1524 9.30521 33.018 10.7429 32.4583C12.5711 31.7466 14.252 31.5116 16.183 31.3947C16.7845 31.3583 17.435 31.3332 18.129 31.3065L18.1292 31.3065C19.5937 31.2502 21.2521 31.1864 23.0522 30.9925C34.8775 29.2456 35.4819 28.3621 38.7012 25.2068C38.9838 25.0107 39.2572 24.7977 39.521 24.5724Z" fill="url(#paint2_linear_34_5619)"/>
              <path d="M40 18.6215C39.9943 18.6306 39.9819 18.6668 39.9646 18.723C39.6372 19.7875 38.8859 21.317 38.2319 22.2185C37.6113 23.0738 37.2522 23.388 36.3482 23.9352C34.3997 25.1147 30.0977 27.072 22.4459 27.5889C20.7553 27.7709 19.5627 27.8002 18.1679 27.8529C17.4383 27.8805 16.7179 27.9077 15.9741 27.9527C13.8683 28.0802 11.7877 28.3505 9.48849 29.2456C7.41876 30.0514 5.80636 31.5305 4.67591 32.8572C3.93967 31.9821 3.27713 31.0431 2.69784 30.0497C3.22362 29.6301 3.94469 29.0704 4.77351 28.4691C6.53874 27.1884 8.66124 25.8168 10.3975 25.1409C12.1307 24.4661 14.292 24.3259 16.8871 24.322C17.4355 24.3212 18.0048 24.3266 18.5887 24.3322C20.6516 24.3519 23.0594 24.5083 27.4145 23.4418C31.7696 22.3752 36.3078 20.5864 39.2306 14.3301C39.6368 15.7048 39.8991 17.141 40 18.6215Z" fill="url(#paint3_linear_34_5619)"/>
              <path d="M0.28491 23.4418C0.488515 24.614 0.794311 25.7512 1.1928 26.8439C1.64331 26.4943 2.16865 26.0966 2.74378 25.6793C4.54595 24.3719 6.96858 22.7747 9.14317 21.9281C11.5374 20.996 14.2842 20.8776 16.8819 20.8737C17.5151 20.8728 18.1404 20.8785 18.759 20.8842C20.7845 20.9028 22.7373 20.9207 24.6558 20.7009C29.4598 20.1504 34.0586 17.6645 36.3009 12.4258C36.7063 11.4787 37.0185 10.6068 37.2581 9.81375C36.5501 8.62143 35.7215 7.50887 34.7892 6.4928C34.4666 7.9181 33.9384 9.63225 33.0878 11.6196C32.2515 13.5733 30.709 14.8945 29.0231 15.7807C27.3472 16.6617 25.4389 17.1638 23.6717 17.4558C20.5938 17.9643 17.6213 17.8759 16.6124 17.8459C16.4685 17.8416 16.3645 17.8385 16.3059 17.8385C16.1239 17.8385 15.8976 17.8321 15.6333 17.8245C13.9452 17.7763 10.7015 17.6837 7.4623 18.9447C5.726 19.6207 3.6035 20.9923 1.83827 22.2729C1.25755 22.6943 0.729726 23.0952 0.28491 23.4418Z" fill="url(#paint4_linear_34_5619)"/>
              <defs>
                <linearGradient id="paint0_linear_34_5619" x1="40" y1="20" x2="0" y2="20" gradientUnits="userSpaceOnUse">
                  <stop stop-color="#D52835"/>
                  <stop offset="0.874" stop-color="#87408F"/>
                </linearGradient>
                <linearGradient id="paint1_linear_34_5619" x1="40" y1="20" x2="0" y2="20" gradientUnits="userSpaceOnUse">
                  <stop stop-color="#D52835"/>
                  <stop offset="0.874" stop-color="#87408F"/>
                </linearGradient>
                <linearGradient id="paint2_linear_34_5619" x1="40" y1="20" x2="0" y2="20" gradientUnits="userSpaceOnUse">
                  <stop stop-color="#D52835"/>
                  <stop offset="0.874" stop-color="#87408F"/>
                </linearGradient>
                <linearGradient id="paint3_linear_34_5619" x1="40" y1="20" x2="0" y2="20" gradientUnits="userSpaceOnUse">
                  <stop stop-color="#D52835"/>
                  <stop offset="0.874" stop-color="#87408F"/>
                </linearGradient>
                <linearGradient id="paint4_linear_34_5619" x1="40" y1="20" x2="0" y2="20" gradientUnits="userSpaceOnUse">
                  <stop stop-color="#D52835"/>
                  <stop offset="0.874" stop-color="#87408F"/>
                </linearGradient>
              </defs>
            </svg>